<svg id="Layer_1" data-name="Layer 1" xmlns="http://www.w3.org/2000/svg" viewBox="0 0 228.75 228.75">
  <defs>
    <style>
      .cls-1 {
        fill: #6ed6d1
      }

      .cls-2 {
        fill: #d1d3d4
      }
    </style>
  </defs>
  <g id="rotateGroup1">
    <path class="cls-1"
      d="M325.19 186.85h-4.73A109.77 109.77 0 0 0 210.82 77.21v-4.73a114.51 114.51 0 0 1 114.37 114.37M210.82 301.23A114.51 114.51 0 0 1 96.44 186.85h4.73A109.77 109.77 0 0 0 210.82 296.5v4.73Z"
      transform="translate(17.935 41.895)" />
  </g>
  <g id="rotateGroup2">
    <path class="cls-1"
      d="M121.23 186.85h-4.73a94.42 94.42 0 0 1 94.31-94.31v4.73a89.69 89.69 0 0 0-89.58 89.58M210.82 281.17v-4.73a89.69 89.69 0 0 0 89.58-89.59h4.73a94.42 94.42 0 0 1-94.31 94.32"
      transform="translate(17.935 41.895)" />
  </g>
  <path class="cls-1"
    d="m257.58 182.72-15.49 8.94a32.59 32.59 0 0 0 .38-4.83 31.6 31.6 0 0 0-7.11-19.94v-20.06a46.8 46.8 0 0 1 22.22 35.89"
    transform="translate(-96.44 -72.48)" />
  <path class="cls-2"
    d="m276.45 171.83-14.39 8.31c-.15-1.19-.35-2.38-.59-3.55a51.65 51.65 0 0 0-26.11-35.21v-17.23a67.39 67.39 0 0 1 41.09 47.68M230.63 122.49v16.63c-1.1-.46-2.22-.89-3.37-1.27a51.75 51.75 0 0 0-43.55 5l-14.92-8.61a67.3 67.3 0 0 1 61.84-11.77"
    transform="translate(-96.44 -72.48)" />
  <path class="cls-1"
    d="M225.76 142.34a43.68 43.68 0 0 1 4.87 2v17.9a31.63 31.63 0 0 0-19.81-7 32.29 32.29 0 0 0-5 .41l-17.36-10a47.05 47.05 0 0 1 37.33-3.26"
    transform="translate(-96.44 -72.48)" />
  <path class="cls-2"
    d="M159.15 186.85v1.5l-14.9 8.65A67.37 67.37 0 0 1 165 137.53l14.38 8.3c-.95.73-1.88 1.49-2.78 2.29a51.64 51.64 0 0 0-17.47 38.72"
    transform="translate(-96.44 -72.48)" />
  <path class="cls-1"
    d="M199.35 157.37a31.61 31.61 0 0 0-18.09 18.22l-17.37 10a46.76 46.76 0 0 1 20-37.2ZM186.28 206.81v20.07a47 47 0 0 1-21.47-30.7 42.34 42.34 0 0 1-.74-5.19l15.47-8.99a30.85 30.85 0 0 0-.38 4.8 31.56 31.56 0 0 0 7.12 20"
    transform="translate(-96.44 -72.48)" />
  <path class="cls-2"
    d="M186.28 232.34v17.22a67.44 67.44 0 0 1-41.1-47.67l14.4-8.31c.15 1.19.36 2.37.59 3.54a51.73 51.73 0 0 0 26.11 35.23"
    transform="translate(-96.44 -72.48)" />
  <path class="cls-1"
    d="M195.89 231.37a43.68 43.68 0 0 1-4.87-2v-17.85a31.57 31.57 0 0 0 19.81 7 32.25 32.25 0 0 0 5-.4l17.35 10a47 47 0 0 1-37.31 3.25"
    transform="translate(-96.44 -72.48)" />
  <path class="cls-2"
    d="M252.84 239.45A67.39 67.39 0 0 1 191 251.21v-16.62c1.1.45 2.22.88 3.36 1.25a51.79 51.79 0 0 0 43.55-5Z"
    transform="translate(-96.44 -72.48)" />
  <path class="cls-1"
    d="M241.88 222a44.86 44.86 0 0 1-4.13 3.24l-15.48-8.93a31.75 31.75 0 0 0 18.1-18.23l17.37-10a47 47 0 0 1-15.87 34"
    transform="translate(-96.44 -72.48)" />
  <path class="cls-2"
    d="M278.15 186.85a67.33 67.33 0 0 1-21.53 49.32l-14.38-8.3c.95-.72 1.88-1.48 2.78-2.28a51.7 51.7 0 0 0 17.48-38.74v-1.48l14.92-8.61a68.48 68.48 0 0 1 .76 10.1"
    transform="translate(-96.44 -72.48)" />
  <path
    d="M226.63 180.48a6.91 6.91 0 0 1-10.6-5.85 6.79 6.79 0 0 1 1-3.63 17 17 0 1 0 9.56 9.48M204.2 196a2.09 2.09 0 1 1 2.09-2.09 2.09 2.09 0 0 1-2.09 2.09"
    transform="translate(-96.44 -72.48)" style="fill:#231f20" />
</svg>